G75*
%MOIN*%
%OFA0B0*%
%FSLAX24Y24*%
%IPPOS*%
%LPD*%
%AMOC8*
5,1,8,0,0,1.08239X$1,22.5*
%
%ADD10C,0.0000*%
%ADD11R,0.0434X0.0473*%
%ADD12C,0.0680*%
%ADD13R,0.2040X0.1040*%
%ADD14C,0.6040*%
%ADD15R,0.0473X0.0434*%
D10*
X000646Y001140D02*
X000646Y014140D01*
X000648Y014200D01*
X000653Y014261D01*
X000662Y014320D01*
X000675Y014379D01*
X000691Y014438D01*
X000711Y014495D01*
X000734Y014550D01*
X000761Y014605D01*
X000790Y014657D01*
X000823Y014708D01*
X000859Y014757D01*
X000897Y014803D01*
X000939Y014847D01*
X000983Y014889D01*
X001029Y014927D01*
X001078Y014963D01*
X001129Y014996D01*
X001181Y015025D01*
X001236Y015052D01*
X001291Y015075D01*
X001348Y015095D01*
X001407Y015111D01*
X001466Y015124D01*
X001525Y015133D01*
X001586Y015138D01*
X001646Y015140D01*
X009646Y015140D01*
X009706Y015138D01*
X009767Y015133D01*
X009826Y015124D01*
X009885Y015111D01*
X009944Y015095D01*
X010001Y015075D01*
X010056Y015052D01*
X010111Y015025D01*
X010163Y014996D01*
X010214Y014963D01*
X010263Y014927D01*
X010309Y014889D01*
X010353Y014847D01*
X010395Y014803D01*
X010433Y014757D01*
X010469Y014708D01*
X010502Y014657D01*
X010531Y014605D01*
X010558Y014550D01*
X010581Y014495D01*
X010601Y014438D01*
X010617Y014379D01*
X010630Y014320D01*
X010639Y014261D01*
X010644Y014200D01*
X010646Y014140D01*
X010646Y001140D01*
X010644Y001080D01*
X010639Y001019D01*
X010630Y000960D01*
X010617Y000901D01*
X010601Y000842D01*
X010581Y000785D01*
X010558Y000730D01*
X010531Y000675D01*
X010502Y000623D01*
X010469Y000572D01*
X010433Y000523D01*
X010395Y000477D01*
X010353Y000433D01*
X010309Y000391D01*
X010263Y000353D01*
X010214Y000317D01*
X010163Y000284D01*
X010111Y000255D01*
X010056Y000228D01*
X010001Y000205D01*
X009944Y000185D01*
X009885Y000169D01*
X009826Y000156D01*
X009767Y000147D01*
X009706Y000142D01*
X009646Y000140D01*
X001646Y000140D01*
X001586Y000142D01*
X001525Y000147D01*
X001466Y000156D01*
X001407Y000169D01*
X001348Y000185D01*
X001291Y000205D01*
X001236Y000228D01*
X001181Y000255D01*
X001129Y000284D01*
X001078Y000317D01*
X001029Y000353D01*
X000983Y000391D01*
X000939Y000433D01*
X000897Y000477D01*
X000859Y000523D01*
X000823Y000572D01*
X000790Y000623D01*
X000761Y000675D01*
X000734Y000730D01*
X000711Y000785D01*
X000691Y000842D01*
X000675Y000901D01*
X000662Y000960D01*
X000653Y001019D01*
X000648Y001080D01*
X000646Y001140D01*
D11*
X001311Y002540D03*
X001980Y002540D03*
X007711Y011840D03*
X007711Y012690D03*
X008380Y012690D03*
X008380Y011840D03*
X006820Y012690D03*
X006151Y012690D03*
X005580Y012690D03*
X004911Y012690D03*
X004380Y012690D03*
X003711Y012690D03*
X003180Y012690D03*
X002511Y012690D03*
X001830Y012690D03*
X001161Y012690D03*
X001161Y013440D03*
X001830Y013440D03*
X009321Y004030D03*
X009321Y003430D03*
X009990Y003430D03*
X009990Y004030D03*
X009980Y002540D03*
X009311Y002540D03*
D12*
X008046Y001710D02*
X008046Y001070D01*
X007046Y001070D02*
X007046Y001710D01*
X006046Y001710D02*
X006046Y001070D01*
X005046Y001070D02*
X005046Y001710D01*
X004046Y001710D02*
X004046Y001070D01*
X003046Y001070D02*
X003046Y001710D01*
X003146Y013570D02*
X003146Y014210D01*
X004146Y014210D02*
X004146Y013570D01*
X005146Y013570D02*
X005146Y014210D01*
X006146Y014210D02*
X006146Y013570D01*
X007146Y013570D02*
X007146Y014210D01*
X008146Y014210D02*
X008146Y013570D01*
D13*
X005646Y011740D03*
X005746Y002740D03*
D14*
X005646Y007240D03*
D15*
X007211Y002540D03*
X007880Y002540D03*
M02*
