G75*
%MOIN*%
%OFA0B0*%
%FSLAX24Y24*%
%IPPOS*%
%LPD*%
%AMOC8*
5,1,8,0,0,1.08239X$1,22.5*
%
%ADD10C,0.0000*%
D10*
X000646Y001140D02*
X000646Y014140D01*
X000648Y014200D01*
X000653Y014261D01*
X000662Y014320D01*
X000675Y014379D01*
X000691Y014438D01*
X000711Y014495D01*
X000734Y014550D01*
X000761Y014605D01*
X000790Y014657D01*
X000823Y014708D01*
X000859Y014757D01*
X000897Y014803D01*
X000939Y014847D01*
X000983Y014889D01*
X001029Y014927D01*
X001078Y014963D01*
X001129Y014996D01*
X001181Y015025D01*
X001236Y015052D01*
X001291Y015075D01*
X001348Y015095D01*
X001407Y015111D01*
X001466Y015124D01*
X001525Y015133D01*
X001586Y015138D01*
X001646Y015140D01*
X009646Y015140D01*
X009706Y015138D01*
X009767Y015133D01*
X009826Y015124D01*
X009885Y015111D01*
X009944Y015095D01*
X010001Y015075D01*
X010056Y015052D01*
X010111Y015025D01*
X010163Y014996D01*
X010214Y014963D01*
X010263Y014927D01*
X010309Y014889D01*
X010353Y014847D01*
X010395Y014803D01*
X010433Y014757D01*
X010469Y014708D01*
X010502Y014657D01*
X010531Y014605D01*
X010558Y014550D01*
X010581Y014495D01*
X010601Y014438D01*
X010617Y014379D01*
X010630Y014320D01*
X010639Y014261D01*
X010644Y014200D01*
X010646Y014140D01*
X010646Y001140D01*
X010644Y001080D01*
X010639Y001019D01*
X010630Y000960D01*
X010617Y000901D01*
X010601Y000842D01*
X010581Y000785D01*
X010558Y000730D01*
X010531Y000675D01*
X010502Y000623D01*
X010469Y000572D01*
X010433Y000523D01*
X010395Y000477D01*
X010353Y000433D01*
X010309Y000391D01*
X010263Y000353D01*
X010214Y000317D01*
X010163Y000284D01*
X010111Y000255D01*
X010056Y000228D01*
X010001Y000205D01*
X009944Y000185D01*
X009885Y000169D01*
X009826Y000156D01*
X009767Y000147D01*
X009706Y000142D01*
X009646Y000140D01*
X001646Y000140D01*
X001586Y000142D01*
X001525Y000147D01*
X001466Y000156D01*
X001407Y000169D01*
X001348Y000185D01*
X001291Y000205D01*
X001236Y000228D01*
X001181Y000255D01*
X001129Y000284D01*
X001078Y000317D01*
X001029Y000353D01*
X000983Y000391D01*
X000939Y000433D01*
X000897Y000477D01*
X000859Y000523D01*
X000823Y000572D01*
X000790Y000623D01*
X000761Y000675D01*
X000734Y000730D01*
X000711Y000785D01*
X000691Y000842D01*
X000675Y000901D01*
X000662Y000960D01*
X000653Y001019D01*
X000648Y001080D01*
X000646Y001140D01*
M02*
