%
M48
M72
T01C0.0197
T02C0.0236
T03C0.0400
%
T01
X9946Y1540
X2166Y3154
X3546Y2540
X4246Y2540
X4171Y3160
X4996Y3690
X4146Y4940
X2246Y4940
X2096Y6390
X2396Y7390
X2698Y7899
X3526Y7910
X4216Y7340
X5396Y8690
X6246Y7385
X7186Y4940
X6496Y3690
X7896Y2990
X8396Y2990
X9046Y2990
X9496Y1790
X9126Y4930
X8246Y8040
X9146Y9990
X8296Y10740
X7906Y10740
X7046Y11440
X7046Y11890
X6876Y12250
X7296Y12590
X6636Y13120
X5646Y13040
X4646Y14390
X3846Y12040
X3846Y11540
X3846Y11040
X4946Y10440
X5396Y10440
X5896Y10440
X6346Y10690
X6546Y10340
X6846Y10890
X6396Y11290
X8046Y12240
X2396Y14290
X1746Y14140
X1736Y12140
X2046Y10690
X1946Y9640
X1946Y8240
X1746Y7890
T02
X9146Y10440
T03
X3146Y13890
X4146Y13890
X5146Y13890
X6146Y13890
X7146Y13890
X8146Y13890
X8046Y1390
X7046Y1390
X6046Y1390
X5046Y1390
X4046Y1390
X3046Y1390
M30
