G75*
%MOIN*%
%OFA0B0*%
%FSLAX24Y24*%
%IPPOS*%
%LPD*%
%AMOC8*
5,1,8,0,0,1.08239X$1,22.5*
%
%ADD10C,0.0000*%
%ADD11C,0.0030*%
%ADD12C,0.0060*%
%ADD13R,0.0160X0.0340*%
%ADD14C,0.0050*%
%ADD15C,0.0040*%
%ADD16R,0.0197X0.0374*%
D10*
X000646Y001140D02*
X000646Y014140D01*
X000648Y014200D01*
X000653Y014261D01*
X000662Y014320D01*
X000675Y014379D01*
X000691Y014438D01*
X000711Y014495D01*
X000734Y014550D01*
X000761Y014605D01*
X000790Y014657D01*
X000823Y014708D01*
X000859Y014757D01*
X000897Y014803D01*
X000939Y014847D01*
X000983Y014889D01*
X001029Y014927D01*
X001078Y014963D01*
X001129Y014996D01*
X001181Y015025D01*
X001236Y015052D01*
X001291Y015075D01*
X001348Y015095D01*
X001407Y015111D01*
X001466Y015124D01*
X001525Y015133D01*
X001586Y015138D01*
X001646Y015140D01*
X009646Y015140D01*
X009706Y015138D01*
X009767Y015133D01*
X009826Y015124D01*
X009885Y015111D01*
X009944Y015095D01*
X010001Y015075D01*
X010056Y015052D01*
X010111Y015025D01*
X010163Y014996D01*
X010214Y014963D01*
X010263Y014927D01*
X010309Y014889D01*
X010353Y014847D01*
X010395Y014803D01*
X010433Y014757D01*
X010469Y014708D01*
X010502Y014657D01*
X010531Y014605D01*
X010558Y014550D01*
X010581Y014495D01*
X010601Y014438D01*
X010617Y014379D01*
X010630Y014320D01*
X010639Y014261D01*
X010644Y014200D01*
X010646Y014140D01*
X010646Y001140D01*
X010644Y001080D01*
X010639Y001019D01*
X010630Y000960D01*
X010617Y000901D01*
X010601Y000842D01*
X010581Y000785D01*
X010558Y000730D01*
X010531Y000675D01*
X010502Y000623D01*
X010469Y000572D01*
X010433Y000523D01*
X010395Y000477D01*
X010353Y000433D01*
X010309Y000391D01*
X010263Y000353D01*
X010214Y000317D01*
X010163Y000284D01*
X010111Y000255D01*
X010056Y000228D01*
X010001Y000205D01*
X009944Y000185D01*
X009885Y000169D01*
X009826Y000156D01*
X009767Y000147D01*
X009706Y000142D01*
X009646Y000140D01*
X001646Y000140D01*
X001586Y000142D01*
X001525Y000147D01*
X001466Y000156D01*
X001407Y000169D01*
X001348Y000185D01*
X001291Y000205D01*
X001236Y000228D01*
X001181Y000255D01*
X001129Y000284D01*
X001078Y000317D01*
X001029Y000353D01*
X000983Y000391D01*
X000939Y000433D01*
X000897Y000477D01*
X000859Y000523D01*
X000823Y000572D01*
X000790Y000623D01*
X000761Y000675D01*
X000734Y000730D01*
X000711Y000785D01*
X000691Y000842D01*
X000675Y000901D01*
X000662Y000960D01*
X000653Y001019D01*
X000648Y001080D01*
X000646Y001140D01*
D11*
X001246Y002955D02*
X001246Y003245D01*
X001391Y003100D01*
X001198Y003100D01*
X001493Y002955D02*
X001686Y002955D01*
X001589Y002955D02*
X001589Y003245D01*
X001686Y003148D01*
X001787Y003100D02*
X001836Y003052D01*
X001981Y003052D01*
X001981Y002955D02*
X001981Y003245D01*
X001836Y003245D01*
X001787Y003197D01*
X001787Y003100D01*
X001884Y003052D02*
X001787Y002955D01*
X002484Y001495D02*
X002484Y001205D01*
X002581Y001205D02*
X002387Y001205D01*
X002581Y001398D02*
X002484Y001495D01*
X007343Y002955D02*
X007536Y002955D01*
X007439Y002955D02*
X007439Y003245D01*
X007536Y003148D01*
X007637Y003197D02*
X007686Y003245D01*
X007782Y003245D01*
X007831Y003197D01*
X007831Y003003D01*
X007782Y002955D01*
X007686Y002955D01*
X007637Y003003D01*
X008398Y002695D02*
X008591Y002695D01*
X008591Y002550D01*
X008495Y002598D01*
X008446Y002598D01*
X008398Y002550D01*
X008398Y002453D01*
X008446Y002405D01*
X008543Y002405D01*
X008591Y002453D01*
X008693Y002405D02*
X008886Y002405D01*
X008789Y002405D02*
X008789Y002695D01*
X008886Y002598D01*
X008987Y002550D02*
X009036Y002502D01*
X009181Y002502D01*
X009181Y002405D02*
X009181Y002695D01*
X009036Y002695D01*
X008987Y002647D01*
X008987Y002550D01*
X009084Y002502D02*
X008987Y002405D01*
X008947Y003295D02*
X009044Y003392D01*
X008996Y003392D02*
X009141Y003392D01*
X009141Y003295D02*
X009141Y003585D01*
X008996Y003585D01*
X008947Y003537D01*
X008947Y003440D01*
X008996Y003392D01*
X008846Y003343D02*
X008798Y003295D01*
X008701Y003295D01*
X008653Y003343D01*
X008653Y003537D01*
X008701Y003585D01*
X008798Y003585D01*
X008846Y003537D01*
X008846Y003488D01*
X008798Y003440D01*
X008653Y003440D01*
X008741Y003805D02*
X008693Y003853D01*
X008693Y003902D01*
X008741Y003950D01*
X008838Y003950D01*
X008886Y003998D01*
X008886Y004047D01*
X008838Y004095D01*
X008741Y004095D01*
X008693Y004047D01*
X008693Y003998D01*
X008741Y003950D01*
X008838Y003950D02*
X008886Y003902D01*
X008886Y003853D01*
X008838Y003805D01*
X008741Y003805D01*
X008987Y003805D02*
X009084Y003902D01*
X009036Y003902D02*
X009181Y003902D01*
X009181Y003805D02*
X009181Y004095D01*
X009036Y004095D01*
X008987Y004047D01*
X008987Y003950D01*
X009036Y003902D01*
X008981Y011655D02*
X008981Y011945D01*
X008836Y011945D01*
X008787Y011897D01*
X008787Y011800D01*
X008836Y011752D01*
X008981Y011752D01*
X008884Y011752D02*
X008787Y011655D01*
X008686Y011655D02*
X008493Y011848D01*
X008493Y011897D01*
X008541Y011945D01*
X008638Y011945D01*
X008686Y011897D01*
X008686Y011655D02*
X008493Y011655D01*
X008541Y012505D02*
X008638Y012505D01*
X008686Y012553D01*
X008787Y012505D02*
X008884Y012602D01*
X008836Y012602D02*
X008981Y012602D01*
X008981Y012505D02*
X008981Y012795D01*
X008836Y012795D01*
X008787Y012747D01*
X008787Y012650D01*
X008836Y012602D01*
X008686Y012747D02*
X008638Y012795D01*
X008541Y012795D01*
X008493Y012747D01*
X008493Y012698D01*
X008541Y012650D01*
X008493Y012602D01*
X008493Y012553D01*
X008541Y012505D01*
X008541Y012650D02*
X008589Y012650D01*
X006481Y012905D02*
X006481Y013195D01*
X006336Y013195D01*
X006287Y013147D01*
X006287Y013050D01*
X006336Y013002D01*
X006481Y013002D01*
X006384Y013002D02*
X006287Y012905D01*
X006186Y013050D02*
X005993Y013050D01*
X006041Y012905D02*
X006041Y013195D01*
X006186Y013050D01*
X005381Y013002D02*
X005236Y013002D01*
X005187Y013050D01*
X005187Y013147D01*
X005236Y013195D01*
X005381Y013195D01*
X005381Y012905D01*
X005284Y013002D02*
X005187Y012905D01*
X005086Y012953D02*
X005038Y012905D01*
X004941Y012905D01*
X004893Y012953D01*
X004893Y013050D01*
X004941Y013098D01*
X004989Y013098D01*
X005086Y013050D01*
X005086Y013195D01*
X004893Y013195D01*
X004481Y013195D02*
X004481Y012905D01*
X004481Y013002D02*
X004336Y013002D01*
X004287Y013050D01*
X004287Y013147D01*
X004336Y013195D01*
X004481Y013195D01*
X004384Y013002D02*
X004287Y012905D01*
X004186Y012905D02*
X003993Y012905D01*
X004089Y012905D02*
X004089Y013195D01*
X004186Y013098D01*
X003891Y013147D02*
X003891Y012953D01*
X003698Y013147D01*
X003698Y012953D01*
X003746Y012905D01*
X003843Y012905D01*
X003891Y012953D01*
X003891Y013147D02*
X003843Y013195D01*
X003746Y013195D01*
X003698Y013147D01*
X003181Y013195D02*
X003181Y012905D01*
X003181Y013002D02*
X003036Y013002D01*
X002987Y013050D01*
X002987Y013147D01*
X003036Y013195D01*
X003181Y013195D01*
X003084Y013002D02*
X002987Y012905D01*
X002886Y012905D02*
X002693Y012905D01*
X002789Y012905D02*
X002789Y013195D01*
X002886Y013098D01*
X002591Y013098D02*
X002495Y013195D01*
X002495Y012905D01*
X002591Y012905D02*
X002398Y012905D01*
X001581Y012395D02*
X001581Y012105D01*
X001581Y012202D02*
X001436Y012202D01*
X001387Y012250D01*
X001387Y012347D01*
X001436Y012395D01*
X001581Y012395D01*
X001484Y012202D02*
X001387Y012105D01*
X001286Y012105D02*
X001093Y012105D01*
X001189Y012105D02*
X001189Y012395D01*
X001286Y012298D01*
X000991Y012347D02*
X000943Y012395D01*
X000846Y012395D01*
X000798Y012347D01*
X000798Y012298D01*
X000991Y012105D01*
X000798Y012105D01*
X000846Y013755D02*
X000943Y013755D01*
X000991Y013803D01*
X001093Y013755D02*
X001286Y013755D01*
X001189Y013755D02*
X001189Y014045D01*
X001286Y013948D01*
X001387Y013900D02*
X001436Y013852D01*
X001581Y013852D01*
X001581Y013755D02*
X001581Y014045D01*
X001436Y014045D01*
X001387Y013997D01*
X001387Y013900D01*
X001484Y013852D02*
X001387Y013755D01*
X000991Y013997D02*
X000943Y014045D01*
X000846Y014045D01*
X000798Y013997D01*
X000798Y013948D01*
X000846Y013900D01*
X000798Y013852D01*
X000798Y013803D01*
X000846Y013755D01*
X000846Y013900D02*
X000895Y013900D01*
X002537Y014105D02*
X002731Y014105D01*
X002634Y014105D02*
X002634Y014395D01*
X002731Y014298D01*
D12*
X001666Y013580D02*
X001326Y013580D01*
X001326Y013300D02*
X001666Y013300D01*
X001666Y012830D02*
X001326Y012830D01*
X001326Y012550D02*
X001666Y012550D01*
X002676Y012550D02*
X003016Y012550D01*
X003016Y012830D02*
X002676Y012830D01*
X003876Y012830D02*
X004216Y012830D01*
X004216Y012550D02*
X003876Y012550D01*
X005076Y012550D02*
X005416Y012550D01*
X005416Y012830D02*
X005076Y012830D01*
X006316Y012830D02*
X006656Y012830D01*
X006656Y012550D02*
X006316Y012550D01*
X007876Y012550D02*
X008216Y012550D01*
X008216Y012830D02*
X007876Y012830D01*
X007876Y011980D02*
X008216Y011980D01*
X008216Y011700D02*
X007876Y011700D01*
X009486Y004170D02*
X009826Y004170D01*
X009826Y003890D02*
X009486Y003890D01*
X009486Y003570D02*
X009826Y003570D01*
X009826Y003290D02*
X009486Y003290D01*
X009476Y002680D02*
X009816Y002680D01*
X009816Y002400D02*
X009476Y002400D01*
X001816Y002400D02*
X001476Y002400D01*
X001476Y002680D02*
X001816Y002680D01*
D13*
X001896Y002540D03*
X001396Y002540D03*
X007796Y011840D03*
X008296Y011840D03*
X008296Y012690D03*
X007796Y012690D03*
X006736Y012690D03*
X006236Y012690D03*
X005496Y012690D03*
X004996Y012690D03*
X004296Y012690D03*
X003796Y012690D03*
X003096Y012690D03*
X002596Y012690D03*
X001746Y012690D03*
X001246Y012690D03*
X001246Y013440D03*
X001746Y013440D03*
X009406Y004030D03*
X009406Y003430D03*
X009906Y003430D03*
X009906Y004030D03*
X009896Y002540D03*
X009396Y002540D03*
D14*
X008546Y003690D02*
X008546Y010790D01*
X007946Y011390D01*
X003496Y011390D01*
X002746Y010640D01*
X002746Y010340D01*
X002746Y010290D01*
X002746Y009590D01*
X003446Y009590D01*
X003446Y004840D01*
X002796Y004840D01*
X002746Y004790D01*
X002746Y003840D01*
X003496Y003090D01*
X007946Y003090D01*
X008546Y003690D01*
D15*
X007686Y002705D02*
X007406Y002705D01*
X007406Y002370D02*
X007686Y002370D01*
D16*
X007774Y002538D03*
X007314Y002538D03*
M02*
