G75*
%MOIN*%
%OFA0B0*%
%FSLAX24Y24*%
%IPPOS*%
%LPD*%
%AMOC8*
5,1,8,0,0,1.08239X$1,22.5*
%
%ADD10C,0.0000*%
%ADD11R,0.0600X0.0140*%
%ADD12R,0.0140X0.0600*%
%ADD13R,0.1440X0.1440*%
%ADD14R,0.0394X0.0433*%
%ADD15R,0.0315X0.0315*%
%ADD16C,0.0640*%
%ADD17R,0.0630X0.0551*%
%ADD18R,0.0394X0.0610*%
%ADD19C,0.0100*%
%ADD20C,0.0317*%
%ADD21C,0.0080*%
%ADD22C,0.0356*%
%ADD23C,0.0200*%
D10*
X000646Y001140D02*
X000646Y014140D01*
X000648Y014200D01*
X000653Y014261D01*
X000662Y014320D01*
X000675Y014379D01*
X000691Y014438D01*
X000711Y014495D01*
X000734Y014550D01*
X000761Y014605D01*
X000790Y014657D01*
X000823Y014708D01*
X000859Y014757D01*
X000897Y014803D01*
X000939Y014847D01*
X000983Y014889D01*
X001029Y014927D01*
X001078Y014963D01*
X001129Y014996D01*
X001181Y015025D01*
X001236Y015052D01*
X001291Y015075D01*
X001348Y015095D01*
X001407Y015111D01*
X001466Y015124D01*
X001525Y015133D01*
X001586Y015138D01*
X001646Y015140D01*
X009646Y015140D01*
X009706Y015138D01*
X009767Y015133D01*
X009826Y015124D01*
X009885Y015111D01*
X009944Y015095D01*
X010001Y015075D01*
X010056Y015052D01*
X010111Y015025D01*
X010163Y014996D01*
X010214Y014963D01*
X010263Y014927D01*
X010309Y014889D01*
X010353Y014847D01*
X010395Y014803D01*
X010433Y014757D01*
X010469Y014708D01*
X010502Y014657D01*
X010531Y014605D01*
X010558Y014550D01*
X010581Y014495D01*
X010601Y014438D01*
X010617Y014379D01*
X010630Y014320D01*
X010639Y014261D01*
X010644Y014200D01*
X010646Y014140D01*
X010646Y001140D01*
X010644Y001080D01*
X010639Y001019D01*
X010630Y000960D01*
X010617Y000901D01*
X010601Y000842D01*
X010581Y000785D01*
X010558Y000730D01*
X010531Y000675D01*
X010502Y000623D01*
X010469Y000572D01*
X010433Y000523D01*
X010395Y000477D01*
X010353Y000433D01*
X010309Y000391D01*
X010263Y000353D01*
X010214Y000317D01*
X010163Y000284D01*
X010111Y000255D01*
X010056Y000228D01*
X010001Y000205D01*
X009944Y000185D01*
X009885Y000169D01*
X009826Y000156D01*
X009767Y000147D01*
X009706Y000142D01*
X009646Y000140D01*
X001646Y000140D01*
X001586Y000142D01*
X001525Y000147D01*
X001466Y000156D01*
X001407Y000169D01*
X001348Y000185D01*
X001291Y000205D01*
X001236Y000228D01*
X001181Y000255D01*
X001129Y000284D01*
X001078Y000317D01*
X001029Y000353D01*
X000983Y000391D01*
X000939Y000433D01*
X000897Y000477D01*
X000859Y000523D01*
X000823Y000572D01*
X000790Y000623D01*
X000761Y000675D01*
X000734Y000730D01*
X000711Y000785D01*
X000691Y000842D01*
X000675Y000901D01*
X000662Y000960D01*
X000653Y001019D01*
X000648Y001080D01*
X000646Y001140D01*
D11*
X002646Y010770D03*
X002646Y011030D03*
X002646Y011280D03*
X002646Y011540D03*
X002646Y011800D03*
X002646Y012050D03*
X002646Y012310D03*
X005046Y012310D03*
X005046Y012050D03*
X005046Y011800D03*
X005046Y011540D03*
X005046Y011280D03*
X005046Y011030D03*
X005046Y010770D03*
D12*
X004616Y010340D03*
X004356Y010340D03*
X004106Y010340D03*
X003846Y010340D03*
X003586Y010340D03*
X003336Y010340D03*
X003076Y010340D03*
X003076Y012740D03*
X003336Y012740D03*
X003586Y012740D03*
X003846Y012740D03*
X004106Y012740D03*
X004356Y012740D03*
X004616Y012740D03*
D13*
X003846Y011540D03*
D14*
X002076Y011765D03*
X002076Y011095D03*
X002696Y008975D03*
X002696Y008305D03*
X003526Y008305D03*
X003526Y008975D03*
X005896Y010905D03*
X005896Y011575D03*
X009511Y012540D03*
X009511Y013140D03*
X010180Y013140D03*
X010180Y012540D03*
X001860Y013660D03*
X001191Y013660D03*
D15*
X001946Y009285D03*
X001946Y008695D03*
X001946Y007385D03*
X001946Y006795D03*
X003746Y006795D03*
X003746Y007385D03*
X004746Y007385D03*
X004746Y006795D03*
X005746Y006795D03*
X005746Y007385D03*
X005746Y008695D03*
X005746Y009285D03*
X006746Y009285D03*
X006746Y008695D03*
X007746Y008695D03*
X007746Y009285D03*
X008746Y009285D03*
X008746Y008695D03*
X008746Y007385D03*
X008746Y006795D03*
X007746Y006795D03*
X007746Y007385D03*
X006746Y007385D03*
X006746Y006795D03*
D16*
X007046Y001710D02*
X007046Y001070D01*
X008046Y001070D02*
X008046Y001710D01*
X006046Y001710D02*
X006046Y001070D01*
X005046Y001070D02*
X005046Y001710D01*
X004046Y001710D02*
X004046Y001070D01*
X003046Y001070D02*
X003046Y001710D01*
X003146Y013570D02*
X003146Y014210D01*
X004146Y014210D02*
X004146Y013570D01*
X005146Y013570D02*
X005146Y014210D01*
X006146Y014210D02*
X006146Y013570D01*
X007146Y013570D02*
X007146Y014210D01*
X008146Y014210D02*
X008146Y013570D01*
D17*
X009720Y004926D03*
X009720Y003154D03*
X006571Y003154D03*
X006571Y004926D03*
X004720Y004926D03*
X004720Y003154D03*
X001571Y003154D03*
X001571Y004926D03*
D18*
X002494Y009630D03*
X003518Y009630D03*
D19*
X003496Y009608D02*
X003496Y009090D01*
X003526Y008305D02*
X003526Y007910D01*
X003741Y007390D02*
X003746Y007385D01*
X003791Y007340D01*
X004216Y007340D01*
X004700Y007340D01*
X004746Y007385D01*
X004741Y007340D01*
X004746Y007385D02*
X004730Y007385D01*
X004746Y006795D02*
X004341Y006390D01*
X002096Y006390D01*
X001946Y006795D02*
X001646Y007045D01*
X001646Y007790D01*
X001746Y007890D01*
X001946Y008240D02*
X001946Y008695D01*
X001991Y008690D01*
X002596Y009140D02*
X002596Y009528D01*
X002046Y010690D02*
X002046Y011190D01*
X002136Y011280D01*
X002646Y011280D01*
X002196Y012440D02*
X001646Y012440D01*
X001446Y012240D01*
X001446Y005840D01*
X001796Y005490D01*
X002296Y005490D01*
X002646Y005140D01*
X002646Y003634D01*
X002166Y003154D01*
X001571Y003154D01*
X001996Y002540D02*
X003546Y002540D01*
X004246Y002540D01*
X004446Y002540D01*
X004546Y002440D01*
X004996Y002440D01*
X004996Y002540D01*
X004246Y002540D01*
X004177Y003154D02*
X004171Y003160D01*
X004177Y003154D02*
X004720Y003154D01*
X005446Y002690D02*
X005446Y006290D01*
X005246Y006490D01*
X005246Y007740D01*
X005046Y007940D01*
X004696Y007940D01*
X004246Y008390D01*
X004246Y009490D01*
X003846Y009890D01*
X003846Y010340D01*
X004106Y010340D02*
X004106Y009930D01*
X004396Y009640D01*
X004396Y008540D01*
X004846Y008090D01*
X005146Y008090D01*
X005396Y007840D01*
X005396Y006590D01*
X005596Y006390D01*
X005596Y002790D01*
X006046Y002340D01*
X008396Y002340D01*
X009046Y002990D01*
X009335Y003540D02*
X009720Y003154D01*
X010196Y002679D01*
X010196Y001790D01*
X009946Y001540D01*
X009496Y001790D02*
X009096Y002190D01*
X005946Y002190D01*
X005446Y002690D01*
X005746Y002890D02*
X006146Y002490D01*
X007896Y002490D01*
X008396Y002990D01*
X007896Y002990D02*
X007896Y002840D01*
X007696Y002640D01*
X006246Y002640D01*
X005896Y002990D01*
X005896Y006390D01*
X006196Y006690D01*
X006691Y006690D01*
X006746Y006795D01*
X007006Y006550D02*
X006946Y006490D01*
X006246Y006490D01*
X006046Y006290D01*
X006046Y003240D01*
X006146Y003140D01*
X006557Y003140D01*
X006571Y003154D01*
X007210Y003154D01*
X007596Y003540D01*
X009335Y003540D01*
X009126Y004930D02*
X009716Y004930D01*
X009720Y004926D01*
X008996Y006790D02*
X008750Y006790D01*
X008746Y006795D01*
X008996Y006790D02*
X009696Y007490D01*
X009696Y010540D01*
X009946Y010790D01*
X009946Y011740D01*
X010496Y012290D01*
X010496Y012825D01*
X010180Y013140D01*
X009846Y012890D02*
X009846Y012140D01*
X009646Y011940D01*
X009646Y010990D01*
X009396Y010740D01*
X008696Y010740D01*
X008396Y010440D01*
X008206Y010440D01*
X007906Y010740D01*
X008296Y010740D02*
X008446Y010890D01*
X009296Y010890D01*
X009496Y011090D01*
X009496Y012525D01*
X009511Y012540D01*
X009846Y012890D02*
X009646Y013090D01*
X009496Y013090D01*
X009496Y013140D01*
X009511Y013140D01*
X010180Y012540D02*
X010180Y012225D01*
X009796Y011840D01*
X009796Y010890D01*
X009546Y010640D01*
X009546Y007640D01*
X008996Y007090D01*
X008050Y007090D01*
X007746Y006795D01*
X007746Y007385D02*
X007746Y007540D01*
X008246Y008040D01*
X007746Y008540D01*
X007746Y008695D01*
X007746Y009285D02*
X007991Y009285D01*
X009146Y010440D01*
X009146Y009990D02*
X008746Y009590D01*
X008746Y009285D01*
X008746Y008695D02*
X008746Y008540D01*
X008246Y008040D01*
X008746Y007540D01*
X008746Y007385D01*
X007006Y006550D02*
X007006Y010600D01*
X007146Y010740D01*
X007146Y010990D01*
X006946Y011190D01*
X006896Y011190D01*
X006626Y011460D01*
X006576Y011520D01*
X006156Y011940D01*
X005696Y011940D01*
X005496Y011740D01*
X005496Y011690D01*
X005356Y011550D01*
X005306Y011550D01*
X005336Y011800D02*
X005046Y011800D01*
X005056Y012040D02*
X005046Y012050D01*
X005056Y012040D02*
X005346Y012040D01*
X005896Y012590D01*
X007296Y012590D01*
X006886Y012260D02*
X006876Y012250D01*
X006886Y012260D02*
X005796Y012260D01*
X005336Y011800D01*
X005346Y012310D02*
X005046Y012310D01*
X005346Y012310D02*
X005936Y012900D01*
X006416Y012900D01*
X006636Y013120D01*
X006146Y013890D02*
X006146Y014290D01*
X004646Y012890D02*
X004596Y012760D01*
X004616Y012740D01*
X003846Y012040D02*
X003846Y011540D01*
X004356Y010340D02*
X004356Y009930D01*
X004546Y009740D01*
X004546Y008640D01*
X004946Y008240D01*
X005246Y008240D01*
X005546Y007940D01*
X006196Y007940D01*
X006396Y008140D01*
X006396Y010190D01*
X006546Y010340D01*
X006246Y010590D02*
X006346Y010690D01*
X006246Y010590D02*
X006246Y008240D01*
X006096Y008090D01*
X005646Y008090D01*
X005346Y008390D01*
X005046Y008390D01*
X004696Y008740D01*
X004696Y009840D01*
X004646Y009890D01*
X004646Y010320D01*
X004616Y010340D01*
X004946Y010440D02*
X004946Y010670D01*
X005046Y010770D01*
X005066Y010790D01*
X005046Y011030D02*
X005821Y011030D01*
X005896Y010905D01*
X005896Y010440D01*
X005746Y010090D02*
X005746Y009285D01*
X005746Y008695D02*
X005400Y008695D01*
X005396Y008690D01*
X005746Y007385D02*
X006246Y007385D01*
X006746Y007385D01*
X006746Y008695D01*
X006746Y009285D02*
X006846Y009335D01*
X006846Y010890D01*
X006396Y011290D02*
X006246Y011290D01*
X005946Y011590D01*
X005896Y011575D02*
X005601Y011280D01*
X005046Y011280D01*
X005396Y010440D02*
X005746Y010090D01*
X003586Y012740D02*
X003586Y013100D01*
X003146Y013540D01*
X003146Y013890D01*
X002096Y013890D01*
X001996Y013790D01*
X001996Y013740D01*
X001866Y013610D01*
X001860Y013660D01*
X001496Y013990D02*
X001646Y014140D01*
X001746Y014140D01*
X002396Y014290D02*
X002446Y014290D01*
X002846Y014690D01*
X003926Y014690D01*
X003976Y014640D01*
X002906Y013140D02*
X002896Y013140D01*
X002196Y012440D01*
X002696Y008305D02*
X002696Y007910D01*
X002698Y007899D01*
X002396Y007390D02*
X001950Y007390D01*
X001946Y007385D01*
X001891Y007385D01*
X003750Y007040D02*
X003746Y006795D01*
X004741Y006790D02*
X004746Y006795D01*
X005746Y006795D02*
X005746Y002890D01*
X006546Y003179D02*
X006571Y003154D01*
X006571Y004926D02*
X006585Y004940D01*
X007186Y004940D01*
X004720Y004926D02*
X004160Y004926D01*
X004146Y004940D01*
X002246Y004940D02*
X002232Y004926D01*
X001571Y004926D01*
D20*
X002246Y004940D03*
X002096Y006390D03*
X002396Y007390D03*
X002698Y007899D03*
X003526Y007910D03*
X004216Y007340D03*
X005396Y008690D03*
X006246Y007385D03*
X007186Y004940D03*
X006496Y003690D03*
X007896Y002990D03*
X008396Y002990D03*
X009046Y002990D03*
X009496Y001790D03*
X009946Y001540D03*
X009126Y004930D03*
X008246Y008040D03*
X009146Y009990D03*
X008296Y010740D03*
X007906Y010740D03*
X007046Y011440D03*
X007046Y011890D03*
X006876Y012250D03*
X007296Y012590D03*
X006636Y013120D03*
X005646Y013040D03*
X004646Y014390D03*
X003846Y012040D03*
X003846Y011540D03*
X003846Y011040D03*
X004946Y010440D03*
X005396Y010440D03*
X005896Y010440D03*
X006346Y010690D03*
X006546Y010340D03*
X006846Y010890D03*
X006396Y011290D03*
X008046Y012240D03*
X004146Y004940D03*
X004996Y003690D03*
X004171Y003160D03*
X004246Y002540D03*
X003546Y002540D03*
X002166Y003154D03*
X001746Y007890D03*
X001946Y008240D03*
X001946Y009640D03*
X002046Y010690D03*
X001736Y012140D03*
X001746Y014140D03*
X002396Y014290D03*
D21*
X000816Y001009D02*
X000897Y000759D01*
X001052Y000546D01*
X001264Y000392D01*
X001514Y000310D01*
X001646Y000300D01*
X009646Y000300D01*
X009777Y000310D01*
X010027Y000392D01*
X010240Y000546D01*
X010394Y000759D01*
X010475Y001009D01*
X010486Y001140D01*
X010486Y011983D01*
X010156Y011653D01*
X010156Y010703D01*
X009906Y010453D01*
X009906Y007403D01*
X009206Y006703D01*
X009083Y006580D01*
X009063Y006580D01*
X009063Y006571D01*
X008969Y006477D01*
X008522Y006477D01*
X008428Y006571D01*
X008428Y006880D01*
X008135Y006880D01*
X008063Y006810D01*
X008063Y006571D01*
X007969Y006477D01*
X007522Y006477D01*
X007428Y006571D01*
X007428Y007018D01*
X007500Y007090D01*
X007428Y007162D01*
X007428Y007609D01*
X007522Y007703D01*
X007611Y007703D01*
X007927Y008019D01*
X007927Y008061D01*
X007611Y008377D01*
X007522Y008377D01*
X007428Y008471D01*
X007428Y008918D01*
X007500Y008990D01*
X007428Y009062D01*
X007428Y009509D01*
X007522Y009603D01*
X007969Y009603D01*
X007990Y009582D01*
X008808Y010399D01*
X008808Y010507D01*
X008817Y010530D01*
X008783Y010530D01*
X008606Y010353D01*
X008483Y010230D01*
X008119Y010230D01*
X007927Y010422D01*
X007842Y010422D01*
X007725Y010470D01*
X007636Y010560D01*
X007587Y010677D01*
X007587Y010803D01*
X007636Y010920D01*
X007725Y011010D01*
X007842Y011058D01*
X007969Y011058D01*
X008086Y011010D01*
X008101Y010995D01*
X008115Y011010D01*
X008232Y011058D01*
X008317Y011058D01*
X008359Y011100D01*
X009209Y011100D01*
X009286Y011177D01*
X009286Y012163D01*
X009248Y012163D01*
X009154Y012257D01*
X009154Y012823D01*
X009171Y012840D01*
X009154Y012857D01*
X009154Y013423D01*
X009248Y013517D01*
X009774Y013517D01*
X009846Y013445D01*
X009917Y013517D01*
X010443Y013517D01*
X010486Y013474D01*
X010486Y014140D01*
X010475Y014271D01*
X010394Y014521D01*
X010240Y014734D01*
X010027Y014888D01*
X009777Y014970D01*
X009646Y014980D01*
X001646Y014980D01*
X001514Y014970D01*
X001264Y014888D01*
X001052Y014734D01*
X000897Y014521D01*
X000816Y014271D01*
X000806Y014140D01*
X000806Y001140D01*
X000816Y001009D01*
X000818Y001004D02*
X002566Y001004D01*
X002566Y000975D02*
X002639Y000798D01*
X002774Y000663D01*
X002950Y000590D01*
X003141Y000590D01*
X003318Y000663D01*
X003453Y000798D01*
X003526Y000975D01*
X003526Y001805D01*
X003453Y001982D01*
X003318Y002117D01*
X003141Y002190D01*
X002950Y002190D01*
X002774Y002117D01*
X002639Y001982D01*
X002566Y001805D01*
X002566Y000975D01*
X002586Y000925D02*
X000843Y000925D01*
X000869Y000847D02*
X002619Y000847D01*
X002669Y000768D02*
X000894Y000768D01*
X000947Y000690D02*
X002747Y000690D01*
X002900Y000611D02*
X001005Y000611D01*
X001070Y000533D02*
X010221Y000533D01*
X010287Y000611D02*
X008192Y000611D01*
X008141Y000590D02*
X008318Y000663D01*
X008453Y000798D01*
X008526Y000975D01*
X008526Y001805D01*
X008453Y001980D01*
X009009Y001980D01*
X009177Y001811D01*
X009177Y001727D01*
X009226Y001610D01*
X009315Y001520D01*
X009432Y001472D01*
X009559Y001472D01*
X009627Y001500D01*
X009627Y001477D01*
X009676Y001360D01*
X009765Y001270D01*
X009882Y001222D01*
X010009Y001222D01*
X010126Y001270D01*
X010216Y001360D01*
X010264Y001477D01*
X010264Y001561D01*
X010283Y001580D01*
X010406Y001703D01*
X010406Y002766D01*
X010195Y002976D01*
X010195Y003496D01*
X010102Y003590D01*
X009582Y003590D01*
X009422Y003750D01*
X007509Y003750D01*
X007386Y003627D01*
X007123Y003364D01*
X007046Y003364D01*
X007046Y003496D01*
X006952Y003590D01*
X006256Y003590D01*
X006256Y004490D01*
X006952Y004490D01*
X007046Y004584D01*
X007046Y004653D01*
X007122Y004622D01*
X007249Y004622D01*
X007366Y004670D01*
X007456Y004760D01*
X007504Y004877D01*
X007504Y005003D01*
X007456Y005120D01*
X007366Y005210D01*
X007249Y005258D01*
X007122Y005258D01*
X007046Y005227D01*
X007046Y005268D01*
X006952Y005361D01*
X006256Y005361D01*
X006256Y006203D01*
X006333Y006280D01*
X007033Y006280D01*
X007216Y006463D01*
X007216Y010513D01*
X007356Y010653D01*
X007356Y011077D01*
X007033Y011400D01*
X006983Y011400D01*
X006786Y011597D01*
X006786Y011607D01*
X006731Y011662D01*
X006681Y011721D01*
X006670Y011722D01*
X006343Y012050D01*
X006625Y012050D01*
X006695Y011980D01*
X006812Y011932D01*
X006939Y011932D01*
X007056Y011980D01*
X007146Y012070D01*
X007194Y012187D01*
X007194Y012287D01*
X007232Y012272D01*
X007359Y012272D01*
X007476Y012320D01*
X007566Y012410D01*
X007614Y012527D01*
X007614Y012653D01*
X007566Y012770D01*
X007476Y012860D01*
X007359Y012908D01*
X007232Y012908D01*
X007115Y012860D01*
X007055Y012800D01*
X006613Y012800D01*
X006614Y012802D01*
X006699Y012802D01*
X006816Y012850D01*
X006906Y012940D01*
X007513Y012940D01*
X007846Y012607D01*
X007846Y012490D01*
X007776Y012420D01*
X007727Y012303D01*
X007727Y012177D01*
X007776Y012060D01*
X007865Y011970D01*
X007982Y011922D01*
X008109Y011922D01*
X008226Y011970D01*
X008316Y012060D01*
X008364Y012177D01*
X008364Y012303D01*
X008316Y012420D01*
X008246Y012490D01*
X008246Y012773D01*
X008129Y012890D01*
X007679Y013340D01*
X007570Y013340D01*
X007626Y013475D01*
X007626Y014305D01*
X007553Y014482D01*
X007418Y014617D01*
X007241Y014690D01*
X007050Y014690D01*
X006874Y014617D01*
X006739Y014482D01*
X006666Y014305D01*
X006666Y013590D01*
X006626Y013590D01*
X006626Y014305D01*
X006553Y014482D01*
X006418Y014617D01*
X006241Y014690D01*
X006050Y014690D01*
X006035Y014684D01*
X005879Y014840D01*
X004073Y014840D01*
X004013Y014900D01*
X002759Y014900D01*
X002636Y014777D01*
X002465Y014606D01*
X002459Y014608D01*
X002332Y014608D01*
X002215Y014560D01*
X002126Y014470D01*
X002077Y014353D01*
X002077Y014227D01*
X002126Y014110D01*
X002135Y014100D01*
X002009Y014100D01*
X001945Y014037D01*
X001597Y014037D01*
X001508Y013948D01*
X001500Y013962D01*
X001474Y013989D01*
X001442Y014007D01*
X001406Y014017D01*
X001231Y014017D01*
X001231Y013700D01*
X001151Y013700D01*
X001151Y013620D01*
X000854Y013620D01*
X000854Y013425D01*
X000864Y013389D01*
X000882Y013358D01*
X000908Y013331D01*
X000940Y013313D01*
X000976Y013303D01*
X001151Y013303D01*
X001151Y013620D01*
X001231Y013620D01*
X001231Y013303D01*
X001406Y013303D01*
X001442Y013313D01*
X001474Y013331D01*
X001500Y013358D01*
X001508Y013372D01*
X001597Y013283D01*
X002123Y013283D01*
X002217Y013377D01*
X002217Y013680D01*
X002666Y013680D01*
X002666Y013475D01*
X002739Y013298D01*
X002748Y013289D01*
X002109Y012650D01*
X001559Y012650D01*
X001436Y012527D01*
X001359Y012450D01*
X001359Y012450D01*
X001236Y012327D01*
X001236Y005753D01*
X001586Y005403D01*
X001627Y005361D01*
X001190Y005361D01*
X001096Y005268D01*
X001096Y004584D01*
X001190Y004490D01*
X001952Y004490D01*
X002046Y004584D01*
X002046Y004690D01*
X002065Y004670D01*
X002182Y004622D01*
X002309Y004622D01*
X002426Y004670D01*
X002436Y004680D01*
X002436Y003721D01*
X002187Y003473D01*
X002102Y003473D01*
X002046Y003449D01*
X002046Y003496D01*
X001952Y003590D01*
X001190Y003590D01*
X001096Y003496D01*
X001096Y002812D01*
X001190Y002719D01*
X001952Y002719D01*
X002046Y002812D01*
X002046Y002859D01*
X002102Y002836D01*
X002229Y002836D01*
X002346Y002884D01*
X002436Y002974D01*
X002484Y003091D01*
X002484Y003176D01*
X002856Y003547D01*
X002856Y005227D01*
X002733Y005350D01*
X002383Y005700D01*
X001883Y005700D01*
X001656Y005927D01*
X001656Y006543D01*
X001722Y006477D01*
X001787Y006477D01*
X001777Y006453D01*
X001777Y006327D01*
X001826Y006210D01*
X001915Y006120D01*
X002032Y006072D01*
X002159Y006072D01*
X002276Y006120D01*
X002336Y006180D01*
X004428Y006180D01*
X004725Y006477D01*
X004969Y006477D01*
X005036Y006543D01*
X005036Y006403D01*
X005236Y006203D01*
X005236Y002603D01*
X005359Y002480D01*
X005736Y002103D01*
X005748Y002091D01*
X005639Y001982D01*
X005566Y001805D01*
X005566Y000975D01*
X005639Y000798D01*
X005774Y000663D01*
X005950Y000590D01*
X006141Y000590D01*
X006318Y000663D01*
X006453Y000798D01*
X006526Y000975D01*
X006526Y001805D01*
X006453Y001980D01*
X006638Y001980D01*
X006566Y001805D01*
X006566Y000975D01*
X006639Y000798D01*
X006774Y000663D01*
X006950Y000590D01*
X007141Y000590D01*
X007318Y000663D01*
X007453Y000798D01*
X007526Y000975D01*
X007526Y001805D01*
X007453Y001980D01*
X007638Y001980D01*
X007566Y001805D01*
X007566Y000975D01*
X007639Y000798D01*
X007774Y000663D01*
X007950Y000590D01*
X008141Y000590D01*
X008344Y000690D02*
X010344Y000690D01*
X010397Y000768D02*
X008423Y000768D01*
X008473Y000847D02*
X010423Y000847D01*
X010448Y000925D02*
X008505Y000925D01*
X008526Y001004D02*
X010474Y001004D01*
X010481Y001082D02*
X008526Y001082D01*
X008526Y001161D02*
X010486Y001161D01*
X010486Y001239D02*
X010051Y001239D01*
X010174Y001318D02*
X010486Y001318D01*
X010486Y001396D02*
X010231Y001396D01*
X010263Y001475D02*
X010486Y001475D01*
X010486Y001553D02*
X010264Y001553D01*
X010334Y001632D02*
X010486Y001632D01*
X010486Y001710D02*
X010406Y001710D01*
X010406Y001789D02*
X010486Y001789D01*
X010486Y001867D02*
X010406Y001867D01*
X010406Y001946D02*
X010486Y001946D01*
X010486Y002024D02*
X010406Y002024D01*
X010406Y002103D02*
X010486Y002103D01*
X010486Y002181D02*
X010406Y002181D01*
X010406Y002260D02*
X010486Y002260D01*
X010486Y002338D02*
X010406Y002338D01*
X010406Y002417D02*
X010486Y002417D01*
X010486Y002495D02*
X010406Y002495D01*
X010406Y002574D02*
X010486Y002574D01*
X010486Y002652D02*
X010406Y002652D01*
X010406Y002731D02*
X010486Y002731D01*
X010486Y002809D02*
X010363Y002809D01*
X010284Y002888D02*
X010486Y002888D01*
X010486Y002966D02*
X010206Y002966D01*
X010195Y003045D02*
X010486Y003045D01*
X010486Y003123D02*
X010195Y003123D01*
X010195Y003202D02*
X010486Y003202D01*
X010486Y003280D02*
X010195Y003280D01*
X010195Y003359D02*
X010486Y003359D01*
X010486Y003437D02*
X010195Y003437D01*
X010176Y003516D02*
X010486Y003516D01*
X010486Y003594D02*
X009578Y003594D01*
X009499Y003673D02*
X010486Y003673D01*
X010486Y003751D02*
X006256Y003751D01*
X006256Y003673D02*
X007431Y003673D01*
X007353Y003594D02*
X006256Y003594D01*
X006256Y003830D02*
X010486Y003830D01*
X010486Y003908D02*
X006256Y003908D01*
X006256Y003987D02*
X010486Y003987D01*
X010486Y004065D02*
X006256Y004065D01*
X006256Y004144D02*
X010486Y004144D01*
X010486Y004222D02*
X006256Y004222D01*
X006256Y004301D02*
X010486Y004301D01*
X010486Y004379D02*
X006256Y004379D01*
X006256Y004458D02*
X010486Y004458D01*
X010486Y004536D02*
X010148Y004536D01*
X010102Y004490D02*
X010195Y004584D01*
X010195Y005268D01*
X010102Y005361D01*
X009339Y005361D01*
X009246Y005268D01*
X009246Y005225D01*
X009189Y005248D01*
X009062Y005248D01*
X008945Y005200D01*
X008856Y005110D01*
X008807Y004993D01*
X008807Y004867D01*
X008856Y004750D01*
X008945Y004660D01*
X009062Y004612D01*
X009189Y004612D01*
X009246Y004635D01*
X009246Y004584D01*
X009339Y004490D01*
X010102Y004490D01*
X010195Y004615D02*
X010486Y004615D01*
X010486Y004693D02*
X010195Y004693D01*
X010195Y004772D02*
X010486Y004772D01*
X010486Y004850D02*
X010195Y004850D01*
X010195Y004929D02*
X010486Y004929D01*
X010486Y005007D02*
X010195Y005007D01*
X010195Y005086D02*
X010486Y005086D01*
X010486Y005164D02*
X010195Y005164D01*
X010195Y005243D02*
X010486Y005243D01*
X010486Y005321D02*
X010142Y005321D01*
X010486Y005400D02*
X006256Y005400D01*
X006256Y005478D02*
X010486Y005478D01*
X010486Y005557D02*
X006256Y005557D01*
X006256Y005635D02*
X010486Y005635D01*
X010486Y005714D02*
X006256Y005714D01*
X006256Y005792D02*
X010486Y005792D01*
X010486Y005871D02*
X006256Y005871D01*
X006256Y005949D02*
X010486Y005949D01*
X010486Y006028D02*
X006256Y006028D01*
X006256Y006106D02*
X010486Y006106D01*
X010486Y006185D02*
X006256Y006185D01*
X006316Y006263D02*
X010486Y006263D01*
X010486Y006342D02*
X007094Y006342D01*
X007173Y006420D02*
X010486Y006420D01*
X010486Y006499D02*
X008991Y006499D01*
X009063Y006577D02*
X010486Y006577D01*
X010486Y006656D02*
X009158Y006656D01*
X009237Y006734D02*
X010486Y006734D01*
X010486Y006813D02*
X009315Y006813D01*
X009394Y006891D02*
X010486Y006891D01*
X010486Y006970D02*
X009472Y006970D01*
X009551Y007048D02*
X010486Y007048D01*
X010486Y007127D02*
X009629Y007127D01*
X009708Y007205D02*
X010486Y007205D01*
X010486Y007284D02*
X009786Y007284D01*
X009865Y007362D02*
X010486Y007362D01*
X010486Y007441D02*
X009906Y007441D01*
X009906Y007519D02*
X010486Y007519D01*
X010486Y007598D02*
X009906Y007598D01*
X009906Y007676D02*
X010486Y007676D01*
X010486Y007755D02*
X009906Y007755D01*
X009906Y007833D02*
X010486Y007833D01*
X010486Y007912D02*
X009906Y007912D01*
X009906Y007990D02*
X010486Y007990D01*
X010486Y008069D02*
X009906Y008069D01*
X009906Y008147D02*
X010486Y008147D01*
X010486Y008226D02*
X009906Y008226D01*
X009906Y008304D02*
X010486Y008304D01*
X010486Y008383D02*
X009906Y008383D01*
X009906Y008461D02*
X010486Y008461D01*
X010486Y008540D02*
X009906Y008540D01*
X009906Y008618D02*
X010486Y008618D01*
X010486Y008697D02*
X009906Y008697D01*
X009906Y008775D02*
X010486Y008775D01*
X010486Y008854D02*
X009906Y008854D01*
X009906Y008932D02*
X010486Y008932D01*
X010486Y009011D02*
X009906Y009011D01*
X009906Y009089D02*
X010486Y009089D01*
X010486Y009168D02*
X009906Y009168D01*
X009906Y009246D02*
X010486Y009246D01*
X010486Y009325D02*
X009906Y009325D01*
X009906Y009403D02*
X010486Y009403D01*
X010486Y009482D02*
X009906Y009482D01*
X009906Y009560D02*
X010486Y009560D01*
X010486Y009639D02*
X009906Y009639D01*
X009906Y009717D02*
X010486Y009717D01*
X010486Y009796D02*
X009906Y009796D01*
X009906Y009874D02*
X010486Y009874D01*
X010486Y009953D02*
X009906Y009953D01*
X009906Y010031D02*
X010486Y010031D01*
X010486Y010110D02*
X009906Y010110D01*
X009906Y010188D02*
X010486Y010188D01*
X010486Y010267D02*
X009906Y010267D01*
X009906Y010345D02*
X010486Y010345D01*
X010486Y010424D02*
X009906Y010424D01*
X009955Y010502D02*
X010486Y010502D01*
X010486Y010581D02*
X010033Y010581D01*
X010112Y010659D02*
X010486Y010659D01*
X010486Y010738D02*
X010156Y010738D01*
X010156Y010816D02*
X010486Y010816D01*
X010486Y010895D02*
X010156Y010895D01*
X010156Y010973D02*
X010486Y010973D01*
X010486Y011052D02*
X010156Y011052D01*
X010156Y011130D02*
X010486Y011130D01*
X010486Y011209D02*
X010156Y011209D01*
X010156Y011287D02*
X010486Y011287D01*
X010486Y011366D02*
X010156Y011366D01*
X010156Y011444D02*
X010486Y011444D01*
X010486Y011523D02*
X010156Y011523D01*
X010156Y011601D02*
X010486Y011601D01*
X010486Y011680D02*
X010182Y011680D01*
X010261Y011758D02*
X010486Y011758D01*
X010486Y011837D02*
X010339Y011837D01*
X010418Y011915D02*
X010486Y011915D01*
X009286Y011915D02*
X006478Y011915D01*
X006556Y011837D02*
X009286Y011837D01*
X009286Y011758D02*
X006635Y011758D01*
X006716Y011680D02*
X009286Y011680D01*
X009286Y011601D02*
X006786Y011601D01*
X006860Y011523D02*
X009286Y011523D01*
X009286Y011444D02*
X006939Y011444D01*
X007067Y011366D02*
X009286Y011366D01*
X009286Y011287D02*
X007146Y011287D01*
X007224Y011209D02*
X009286Y011209D01*
X009239Y011130D02*
X007303Y011130D01*
X007356Y011052D02*
X007826Y011052D01*
X007688Y010973D02*
X007356Y010973D01*
X007356Y010895D02*
X007625Y010895D01*
X007593Y010816D02*
X007356Y010816D01*
X007356Y010738D02*
X007587Y010738D01*
X007595Y010659D02*
X007356Y010659D01*
X007283Y010581D02*
X007627Y010581D01*
X007693Y010502D02*
X007216Y010502D01*
X007216Y010424D02*
X007838Y010424D01*
X008004Y010345D02*
X007216Y010345D01*
X007216Y010267D02*
X008082Y010267D01*
X008283Y009874D02*
X007216Y009874D01*
X007216Y009796D02*
X008204Y009796D01*
X008126Y009717D02*
X007216Y009717D01*
X007216Y009639D02*
X008047Y009639D01*
X008361Y009953D02*
X007216Y009953D01*
X007216Y010031D02*
X008440Y010031D01*
X008518Y010110D02*
X007216Y010110D01*
X007216Y010188D02*
X008597Y010188D01*
X008519Y010267D02*
X008675Y010267D01*
X008598Y010345D02*
X008754Y010345D01*
X008808Y010424D02*
X008676Y010424D01*
X008755Y010502D02*
X008808Y010502D01*
X008216Y011052D02*
X007986Y011052D01*
X007842Y011994D02*
X007070Y011994D01*
X007147Y012072D02*
X007771Y012072D01*
X007738Y012151D02*
X007179Y012151D01*
X007194Y012229D02*
X007727Y012229D01*
X007729Y012308D02*
X007446Y012308D01*
X007542Y012386D02*
X007762Y012386D01*
X007820Y012465D02*
X007588Y012465D01*
X007614Y012543D02*
X007846Y012543D01*
X007831Y012622D02*
X007614Y012622D01*
X007595Y012700D02*
X007753Y012700D01*
X007674Y012779D02*
X007557Y012779D01*
X007596Y012857D02*
X007479Y012857D01*
X007517Y012936D02*
X006902Y012936D01*
X006906Y012940D02*
X006906Y012940D01*
X006823Y012857D02*
X007112Y012857D01*
X006986Y013140D02*
X007596Y013140D01*
X008046Y012690D01*
X008046Y012240D01*
X008271Y012465D02*
X009154Y012465D01*
X009154Y012543D02*
X008246Y012543D01*
X008246Y012622D02*
X009154Y012622D01*
X009154Y012700D02*
X008246Y012700D01*
X008240Y012779D02*
X009154Y012779D01*
X009154Y012857D02*
X008161Y012857D01*
X008083Y012936D02*
X009154Y012936D01*
X009154Y013014D02*
X008004Y013014D01*
X008044Y013093D02*
X007926Y013093D01*
X007874Y013163D02*
X008050Y013090D01*
X008241Y013090D01*
X008418Y013163D01*
X008553Y013298D01*
X008626Y013475D01*
X008626Y014305D01*
X008553Y014482D01*
X008418Y014617D01*
X008241Y014690D01*
X008050Y014690D01*
X007874Y014617D01*
X007739Y014482D01*
X007666Y014305D01*
X007666Y013475D01*
X007739Y013298D01*
X007874Y013163D01*
X007866Y013171D02*
X007847Y013171D01*
X007787Y013250D02*
X007769Y013250D01*
X007726Y013328D02*
X007690Y013328D01*
X007694Y013407D02*
X007598Y013407D01*
X007626Y013485D02*
X007666Y013485D01*
X007666Y013564D02*
X007626Y013564D01*
X007626Y013642D02*
X007666Y013642D01*
X007666Y013721D02*
X007626Y013721D01*
X007626Y013799D02*
X007666Y013799D01*
X007666Y013878D02*
X007626Y013878D01*
X007626Y013956D02*
X007666Y013956D01*
X007666Y014035D02*
X007626Y014035D01*
X007626Y014113D02*
X007666Y014113D01*
X007666Y014192D02*
X007626Y014192D01*
X007626Y014270D02*
X007666Y014270D01*
X007684Y014349D02*
X007608Y014349D01*
X007575Y014427D02*
X007716Y014427D01*
X007762Y014506D02*
X007529Y014506D01*
X007450Y014584D02*
X007841Y014584D01*
X007984Y014663D02*
X007307Y014663D01*
X006984Y014663D02*
X006307Y014663D01*
X006450Y014584D02*
X006841Y014584D01*
X006762Y014506D02*
X006529Y014506D01*
X006575Y014427D02*
X006716Y014427D01*
X006684Y014349D02*
X006608Y014349D01*
X006626Y014270D02*
X006666Y014270D01*
X006666Y014192D02*
X006626Y014192D01*
X006626Y014113D02*
X006666Y014113D01*
X006666Y014035D02*
X006626Y014035D01*
X006626Y013956D02*
X006666Y013956D01*
X006666Y013878D02*
X006626Y013878D01*
X006626Y013799D02*
X006666Y013799D01*
X006666Y013721D02*
X006626Y013721D01*
X006626Y013642D02*
X006666Y013642D01*
X006736Y013390D02*
X006546Y013390D01*
X006306Y013150D01*
X005936Y013150D01*
X005746Y013340D01*
X005556Y013340D01*
X005326Y013110D01*
X005006Y013110D01*
X004986Y013130D01*
X004506Y013130D01*
X004366Y012990D01*
X004356Y012740D01*
X004106Y012740D02*
X004106Y012950D01*
X004096Y012990D01*
X004096Y013070D01*
X004176Y013150D01*
X004306Y013150D01*
X004416Y013260D01*
X004516Y013260D01*
X004646Y013390D01*
X004646Y014390D01*
X003976Y014640D02*
X005796Y014640D01*
X006146Y014290D01*
X005977Y014741D02*
X010230Y014741D01*
X010292Y014663D02*
X008307Y014663D01*
X008450Y014584D02*
X010349Y014584D01*
X010399Y014506D02*
X008529Y014506D01*
X008575Y014427D02*
X010425Y014427D01*
X010450Y014349D02*
X008608Y014349D01*
X008626Y014270D02*
X010475Y014270D01*
X010482Y014192D02*
X008626Y014192D01*
X008626Y014113D02*
X010486Y014113D01*
X010486Y014035D02*
X008626Y014035D01*
X008626Y013956D02*
X010486Y013956D01*
X010486Y013878D02*
X008626Y013878D01*
X008626Y013799D02*
X010486Y013799D01*
X010486Y013721D02*
X008626Y013721D01*
X008626Y013642D02*
X010486Y013642D01*
X010486Y013564D02*
X008626Y013564D01*
X008626Y013485D02*
X009216Y013485D01*
X009154Y013407D02*
X008598Y013407D01*
X008565Y013328D02*
X009154Y013328D01*
X009154Y013250D02*
X008504Y013250D01*
X008426Y013171D02*
X009154Y013171D01*
X009154Y013093D02*
X008247Y013093D01*
X008330Y012386D02*
X009154Y012386D01*
X009154Y012308D02*
X008362Y012308D01*
X008364Y012229D02*
X009182Y012229D01*
X009286Y012151D02*
X008353Y012151D01*
X008321Y012072D02*
X009286Y012072D01*
X009286Y011994D02*
X008250Y011994D01*
X006986Y013140D02*
X006736Y013390D01*
X005899Y014820D02*
X010122Y014820D01*
X009997Y014898D02*
X004015Y014898D01*
X003976Y014640D02*
X003646Y014310D01*
X003646Y013340D01*
X003846Y013140D01*
X003846Y012740D01*
X003336Y012740D02*
X003336Y013000D01*
X003196Y013140D01*
X002906Y013140D01*
X002708Y013250D02*
X000806Y013250D01*
X000806Y013328D02*
X000914Y013328D01*
X000859Y013407D02*
X000806Y013407D01*
X000806Y013485D02*
X000854Y013485D01*
X000854Y013564D02*
X000806Y013564D01*
X000806Y013642D02*
X001151Y013642D01*
X001151Y013700D02*
X000854Y013700D01*
X000854Y013895D01*
X000864Y013931D01*
X000882Y013962D01*
X000908Y013989D01*
X000940Y014007D01*
X000976Y014017D01*
X001151Y014017D01*
X001151Y013700D01*
X001151Y013721D02*
X001231Y013721D01*
X001231Y013799D02*
X001151Y013799D01*
X001151Y013878D02*
X001231Y013878D01*
X001231Y013956D02*
X001151Y013956D01*
X000878Y013956D02*
X000806Y013956D01*
X000806Y013878D02*
X000854Y013878D01*
X000854Y013799D02*
X000806Y013799D01*
X000806Y013721D02*
X000854Y013721D01*
X000806Y014035D02*
X001595Y014035D01*
X001517Y013956D02*
X001504Y013956D01*
X001231Y013564D02*
X001151Y013564D01*
X001151Y013485D02*
X001231Y013485D01*
X001231Y013407D02*
X001151Y013407D01*
X001151Y013328D02*
X001231Y013328D01*
X001468Y013328D02*
X001553Y013328D01*
X001530Y012622D02*
X000806Y012622D01*
X000806Y012700D02*
X002159Y012700D01*
X002237Y012779D02*
X000806Y012779D01*
X000806Y012857D02*
X002316Y012857D01*
X002394Y012936D02*
X000806Y012936D01*
X000806Y013014D02*
X002473Y013014D01*
X002551Y013093D02*
X000806Y013093D01*
X000806Y013171D02*
X002630Y013171D01*
X002726Y013328D02*
X002168Y013328D01*
X002217Y013407D02*
X002694Y013407D01*
X002666Y013485D02*
X002217Y013485D01*
X002217Y013564D02*
X002666Y013564D01*
X002666Y013642D02*
X002217Y013642D01*
X002124Y014113D02*
X000806Y014113D01*
X000810Y014192D02*
X002092Y014192D01*
X002077Y014270D02*
X000816Y014270D01*
X000841Y014349D02*
X002077Y014349D01*
X002108Y014427D02*
X000867Y014427D01*
X000892Y014506D02*
X002161Y014506D01*
X002273Y014584D02*
X000943Y014584D01*
X001000Y014663D02*
X002521Y014663D01*
X002600Y014741D02*
X001061Y014741D01*
X001170Y014820D02*
X002678Y014820D01*
X002757Y014898D02*
X001294Y014898D01*
X001602Y014977D02*
X009690Y014977D01*
X009806Y013485D02*
X009886Y013485D01*
X010475Y013485D02*
X010486Y013485D01*
X007479Y009560D02*
X007216Y009560D01*
X007216Y009482D02*
X007428Y009482D01*
X007428Y009403D02*
X007216Y009403D01*
X007216Y009325D02*
X007428Y009325D01*
X007428Y009246D02*
X007216Y009246D01*
X007216Y009168D02*
X007428Y009168D01*
X007428Y009089D02*
X007216Y009089D01*
X007216Y009011D02*
X007479Y009011D01*
X007442Y008932D02*
X007216Y008932D01*
X007216Y008854D02*
X007428Y008854D01*
X007428Y008775D02*
X007216Y008775D01*
X007216Y008697D02*
X007428Y008697D01*
X007428Y008618D02*
X007216Y008618D01*
X007216Y008540D02*
X007428Y008540D01*
X007438Y008461D02*
X007216Y008461D01*
X007216Y008383D02*
X007517Y008383D01*
X007685Y008304D02*
X007216Y008304D01*
X007216Y008226D02*
X007763Y008226D01*
X007842Y008147D02*
X007216Y008147D01*
X007216Y008069D02*
X007920Y008069D01*
X007899Y007990D02*
X007216Y007990D01*
X007216Y007912D02*
X007820Y007912D01*
X007742Y007833D02*
X007216Y007833D01*
X007216Y007755D02*
X007663Y007755D01*
X007495Y007676D02*
X007216Y007676D01*
X007216Y007598D02*
X007428Y007598D01*
X007428Y007519D02*
X007216Y007519D01*
X007216Y007441D02*
X007428Y007441D01*
X007428Y007362D02*
X007216Y007362D01*
X007216Y007284D02*
X007428Y007284D01*
X007428Y007205D02*
X007216Y007205D01*
X007216Y007127D02*
X007463Y007127D01*
X007458Y007048D02*
X007216Y007048D01*
X007216Y006970D02*
X007428Y006970D01*
X007428Y006891D02*
X007216Y006891D01*
X007216Y006813D02*
X007428Y006813D01*
X007428Y006734D02*
X007216Y006734D01*
X007216Y006656D02*
X007428Y006656D01*
X007428Y006577D02*
X007216Y006577D01*
X007216Y006499D02*
X007501Y006499D01*
X007991Y006499D02*
X008501Y006499D01*
X008428Y006577D02*
X008063Y006577D01*
X008063Y006656D02*
X008428Y006656D01*
X008428Y006734D02*
X008063Y006734D01*
X008066Y006813D02*
X008428Y006813D01*
X009048Y005243D02*
X007287Y005243D01*
X007412Y005164D02*
X008909Y005164D01*
X008845Y005086D02*
X007470Y005086D01*
X007503Y005007D02*
X008813Y005007D01*
X008807Y004929D02*
X007504Y004929D01*
X007493Y004850D02*
X008814Y004850D01*
X008847Y004772D02*
X007461Y004772D01*
X007389Y004693D02*
X008912Y004693D01*
X009055Y004615D02*
X007046Y004615D01*
X006998Y004536D02*
X009293Y004536D01*
X009246Y004615D02*
X009196Y004615D01*
X009203Y005243D02*
X009246Y005243D01*
X009299Y005321D02*
X006993Y005321D01*
X007046Y005243D02*
X007084Y005243D01*
X007026Y003516D02*
X007274Y003516D01*
X007196Y003437D02*
X007046Y003437D01*
X007468Y001946D02*
X007624Y001946D01*
X007591Y001867D02*
X007500Y001867D01*
X007526Y001789D02*
X007566Y001789D01*
X007566Y001710D02*
X007526Y001710D01*
X007526Y001632D02*
X007566Y001632D01*
X007566Y001553D02*
X007526Y001553D01*
X007526Y001475D02*
X007566Y001475D01*
X007566Y001396D02*
X007526Y001396D01*
X007526Y001318D02*
X007566Y001318D01*
X007566Y001239D02*
X007526Y001239D01*
X007526Y001161D02*
X007566Y001161D01*
X007566Y001082D02*
X007526Y001082D01*
X007526Y001004D02*
X007566Y001004D01*
X007586Y000925D02*
X007505Y000925D01*
X007473Y000847D02*
X007619Y000847D01*
X007669Y000768D02*
X007423Y000768D01*
X007344Y000690D02*
X007747Y000690D01*
X007900Y000611D02*
X007192Y000611D01*
X006900Y000611D02*
X006192Y000611D01*
X006344Y000690D02*
X006747Y000690D01*
X006669Y000768D02*
X006423Y000768D01*
X006473Y000847D02*
X006619Y000847D01*
X006586Y000925D02*
X006505Y000925D01*
X006526Y001004D02*
X006566Y001004D01*
X006566Y001082D02*
X006526Y001082D01*
X006526Y001161D02*
X006566Y001161D01*
X006566Y001239D02*
X006526Y001239D01*
X006526Y001318D02*
X006566Y001318D01*
X006566Y001396D02*
X006526Y001396D01*
X006526Y001475D02*
X006566Y001475D01*
X006566Y001553D02*
X006526Y001553D01*
X006526Y001632D02*
X006566Y001632D01*
X006566Y001710D02*
X006526Y001710D01*
X006526Y001789D02*
X006566Y001789D01*
X006591Y001867D02*
X006500Y001867D01*
X006468Y001946D02*
X006624Y001946D01*
X005736Y002103D02*
X005332Y002103D01*
X005318Y002117D02*
X005141Y002190D01*
X004950Y002190D01*
X004774Y002117D01*
X004639Y001982D01*
X004566Y001805D01*
X004566Y000975D01*
X004639Y000798D01*
X004774Y000663D01*
X004950Y000590D01*
X005141Y000590D01*
X005318Y000663D01*
X005453Y000798D01*
X005526Y000975D01*
X005526Y001805D01*
X005453Y001982D01*
X005318Y002117D01*
X005411Y002024D02*
X005681Y002024D01*
X005624Y001946D02*
X005468Y001946D01*
X005500Y001867D02*
X005591Y001867D01*
X005566Y001789D02*
X005526Y001789D01*
X005526Y001710D02*
X005566Y001710D01*
X005566Y001632D02*
X005526Y001632D01*
X005526Y001553D02*
X005566Y001553D01*
X005566Y001475D02*
X005526Y001475D01*
X005526Y001396D02*
X005566Y001396D01*
X005566Y001318D02*
X005526Y001318D01*
X005526Y001239D02*
X005566Y001239D01*
X005566Y001161D02*
X005526Y001161D01*
X005526Y001082D02*
X005566Y001082D01*
X005566Y001004D02*
X005526Y001004D01*
X005505Y000925D02*
X005586Y000925D01*
X005619Y000847D02*
X005473Y000847D01*
X005423Y000768D02*
X005669Y000768D01*
X005747Y000690D02*
X005344Y000690D01*
X005192Y000611D02*
X005900Y000611D01*
X004900Y000611D02*
X004192Y000611D01*
X004141Y000590D02*
X004318Y000663D01*
X004453Y000798D01*
X004526Y000975D01*
X004526Y001805D01*
X004453Y001982D01*
X004318Y002117D01*
X004141Y002190D01*
X003950Y002190D01*
X003774Y002117D01*
X003639Y001982D01*
X003566Y001805D01*
X003566Y000975D01*
X003639Y000798D01*
X003774Y000663D01*
X003950Y000590D01*
X004141Y000590D01*
X004344Y000690D02*
X004747Y000690D01*
X004669Y000768D02*
X004423Y000768D01*
X004473Y000847D02*
X004619Y000847D01*
X004586Y000925D02*
X004505Y000925D01*
X004526Y001004D02*
X004566Y001004D01*
X004566Y001082D02*
X004526Y001082D01*
X004526Y001161D02*
X004566Y001161D01*
X004566Y001239D02*
X004526Y001239D01*
X004526Y001318D02*
X004566Y001318D01*
X004566Y001396D02*
X004526Y001396D01*
X004526Y001475D02*
X004566Y001475D01*
X004566Y001553D02*
X004526Y001553D01*
X004526Y001632D02*
X004566Y001632D01*
X004566Y001710D02*
X004526Y001710D01*
X004526Y001789D02*
X004566Y001789D01*
X004591Y001867D02*
X004500Y001867D01*
X004468Y001946D02*
X004624Y001946D01*
X004681Y002024D02*
X004411Y002024D01*
X004332Y002103D02*
X004759Y002103D01*
X004929Y002181D02*
X004163Y002181D01*
X003929Y002181D02*
X003163Y002181D01*
X003332Y002103D02*
X003759Y002103D01*
X003681Y002024D02*
X003411Y002024D01*
X003468Y001946D02*
X003624Y001946D01*
X003591Y001867D02*
X003500Y001867D01*
X003526Y001789D02*
X003566Y001789D01*
X003566Y001710D02*
X003526Y001710D01*
X003526Y001632D02*
X003566Y001632D01*
X003566Y001553D02*
X003526Y001553D01*
X003526Y001475D02*
X003566Y001475D01*
X003566Y001396D02*
X003526Y001396D01*
X003526Y001318D02*
X003566Y001318D01*
X003566Y001239D02*
X003526Y001239D01*
X003526Y001161D02*
X003566Y001161D01*
X003566Y001082D02*
X003526Y001082D01*
X003526Y001004D02*
X003566Y001004D01*
X003586Y000925D02*
X003505Y000925D01*
X003473Y000847D02*
X003619Y000847D01*
X003669Y000768D02*
X003423Y000768D01*
X003344Y000690D02*
X003747Y000690D01*
X003900Y000611D02*
X003192Y000611D01*
X002566Y001082D02*
X000810Y001082D01*
X000806Y001161D02*
X002566Y001161D01*
X002566Y001239D02*
X000806Y001239D01*
X000806Y001318D02*
X002566Y001318D01*
X002566Y001396D02*
X000806Y001396D01*
X000806Y001475D02*
X002566Y001475D01*
X002566Y001553D02*
X000806Y001553D01*
X000806Y001632D02*
X002566Y001632D01*
X002566Y001710D02*
X000806Y001710D01*
X000806Y001789D02*
X002566Y001789D01*
X002591Y001867D02*
X000806Y001867D01*
X000806Y001946D02*
X002624Y001946D01*
X002681Y002024D02*
X000806Y002024D01*
X000806Y002103D02*
X002759Y002103D01*
X002929Y002181D02*
X000806Y002181D01*
X000806Y002260D02*
X005579Y002260D01*
X005501Y002338D02*
X000806Y002338D01*
X000806Y002417D02*
X005422Y002417D01*
X005344Y002495D02*
X000806Y002495D01*
X000806Y002574D02*
X005265Y002574D01*
X005236Y002652D02*
X000806Y002652D01*
X000806Y002731D02*
X001178Y002731D01*
X001099Y002809D02*
X000806Y002809D01*
X000806Y002888D02*
X001096Y002888D01*
X001096Y002966D02*
X000806Y002966D01*
X000806Y003045D02*
X001096Y003045D01*
X001096Y003123D02*
X000806Y003123D01*
X000806Y003202D02*
X001096Y003202D01*
X001096Y003280D02*
X000806Y003280D01*
X000806Y003359D02*
X001096Y003359D01*
X001096Y003437D02*
X000806Y003437D01*
X000806Y003516D02*
X001115Y003516D01*
X000806Y003594D02*
X002309Y003594D01*
X002387Y003673D02*
X000806Y003673D01*
X000806Y003751D02*
X002436Y003751D01*
X002436Y003830D02*
X000806Y003830D01*
X000806Y003908D02*
X002436Y003908D01*
X002436Y003987D02*
X000806Y003987D01*
X000806Y004065D02*
X002436Y004065D01*
X002436Y004144D02*
X000806Y004144D01*
X000806Y004222D02*
X002436Y004222D01*
X002436Y004301D02*
X000806Y004301D01*
X000806Y004379D02*
X002436Y004379D01*
X002436Y004458D02*
X000806Y004458D01*
X000806Y004536D02*
X001144Y004536D01*
X001096Y004615D02*
X000806Y004615D01*
X000806Y004693D02*
X001096Y004693D01*
X001096Y004772D02*
X000806Y004772D01*
X000806Y004850D02*
X001096Y004850D01*
X001096Y004929D02*
X000806Y004929D01*
X000806Y005007D02*
X001096Y005007D01*
X001096Y005086D02*
X000806Y005086D01*
X000806Y005164D02*
X001096Y005164D01*
X001096Y005243D02*
X000806Y005243D01*
X000806Y005321D02*
X001149Y005321D01*
X001432Y005557D02*
X000806Y005557D01*
X000806Y005635D02*
X001354Y005635D01*
X001275Y005714D02*
X000806Y005714D01*
X000806Y005792D02*
X001236Y005792D01*
X001236Y005871D02*
X000806Y005871D01*
X000806Y005949D02*
X001236Y005949D01*
X001236Y006028D02*
X000806Y006028D01*
X000806Y006106D02*
X001236Y006106D01*
X001236Y006185D02*
X000806Y006185D01*
X000806Y006263D02*
X001236Y006263D01*
X001236Y006342D02*
X000806Y006342D01*
X000806Y006420D02*
X001236Y006420D01*
X001236Y006499D02*
X000806Y006499D01*
X000806Y006577D02*
X001236Y006577D01*
X001236Y006656D02*
X000806Y006656D01*
X000806Y006734D02*
X001236Y006734D01*
X001236Y006813D02*
X000806Y006813D01*
X000806Y006891D02*
X001236Y006891D01*
X001236Y006970D02*
X000806Y006970D01*
X000806Y007048D02*
X001236Y007048D01*
X001236Y007127D02*
X000806Y007127D01*
X000806Y007205D02*
X001236Y007205D01*
X001236Y007284D02*
X000806Y007284D01*
X000806Y007362D02*
X001236Y007362D01*
X001236Y007441D02*
X000806Y007441D01*
X000806Y007519D02*
X001236Y007519D01*
X001236Y007598D02*
X000806Y007598D01*
X000806Y007676D02*
X001236Y007676D01*
X001236Y007755D02*
X000806Y007755D01*
X000806Y007833D02*
X001236Y007833D01*
X001236Y007912D02*
X000806Y007912D01*
X000806Y007990D02*
X001236Y007990D01*
X001236Y008069D02*
X000806Y008069D01*
X000806Y008147D02*
X001236Y008147D01*
X001236Y008226D02*
X000806Y008226D01*
X000806Y008304D02*
X001236Y008304D01*
X001236Y008383D02*
X000806Y008383D01*
X000806Y008461D02*
X001236Y008461D01*
X001236Y008540D02*
X000806Y008540D01*
X000806Y008618D02*
X001236Y008618D01*
X001236Y008697D02*
X000806Y008697D01*
X000806Y008775D02*
X001236Y008775D01*
X001236Y008854D02*
X000806Y008854D01*
X000806Y008932D02*
X001236Y008932D01*
X001236Y009011D02*
X000806Y009011D01*
X000806Y009089D02*
X001236Y009089D01*
X001236Y009168D02*
X000806Y009168D01*
X000806Y009246D02*
X001236Y009246D01*
X001236Y009325D02*
X000806Y009325D01*
X000806Y009403D02*
X001236Y009403D01*
X001236Y009482D02*
X000806Y009482D01*
X000806Y009560D02*
X001236Y009560D01*
X001236Y009639D02*
X000806Y009639D01*
X000806Y009717D02*
X001236Y009717D01*
X001236Y009796D02*
X000806Y009796D01*
X000806Y009874D02*
X001236Y009874D01*
X001236Y009953D02*
X000806Y009953D01*
X000806Y010031D02*
X001236Y010031D01*
X001236Y010110D02*
X000806Y010110D01*
X000806Y010188D02*
X001236Y010188D01*
X001236Y010267D02*
X000806Y010267D01*
X000806Y010345D02*
X001236Y010345D01*
X001236Y010424D02*
X000806Y010424D01*
X000806Y010502D02*
X001236Y010502D01*
X001236Y010581D02*
X000806Y010581D01*
X000806Y010659D02*
X001236Y010659D01*
X001236Y010738D02*
X000806Y010738D01*
X000806Y010816D02*
X001236Y010816D01*
X001236Y010895D02*
X000806Y010895D01*
X000806Y010973D02*
X001236Y010973D01*
X001236Y011052D02*
X000806Y011052D01*
X000806Y011130D02*
X001236Y011130D01*
X001236Y011209D02*
X000806Y011209D01*
X000806Y011287D02*
X001236Y011287D01*
X001236Y011366D02*
X000806Y011366D01*
X000806Y011444D02*
X001236Y011444D01*
X001236Y011523D02*
X000806Y011523D01*
X000806Y011601D02*
X001236Y011601D01*
X001236Y011680D02*
X000806Y011680D01*
X000806Y011758D02*
X001236Y011758D01*
X001236Y011837D02*
X000806Y011837D01*
X000806Y011915D02*
X001236Y011915D01*
X001236Y011994D02*
X000806Y011994D01*
X000806Y012072D02*
X001236Y012072D01*
X001236Y012151D02*
X000806Y012151D01*
X000806Y012229D02*
X001236Y012229D01*
X001236Y012308D02*
X000806Y012308D01*
X000806Y012386D02*
X001295Y012386D01*
X001373Y012465D02*
X000806Y012465D01*
X000806Y012543D02*
X001452Y012543D01*
X001436Y012527D02*
X001436Y012527D01*
X001736Y012140D02*
X001596Y012000D01*
X001596Y009140D01*
X001746Y008990D01*
X002196Y008990D01*
X002346Y008840D01*
X002346Y007890D01*
X003196Y007040D01*
X003750Y007040D01*
X004511Y006263D02*
X005176Y006263D01*
X005236Y006185D02*
X004432Y006185D01*
X004589Y006342D02*
X005097Y006342D01*
X005036Y006420D02*
X004668Y006420D01*
X004991Y006499D02*
X005036Y006499D01*
X005236Y006106D02*
X002242Y006106D01*
X001949Y006106D02*
X001656Y006106D01*
X001656Y006028D02*
X005236Y006028D01*
X005236Y005949D02*
X001656Y005949D01*
X001712Y005871D02*
X005236Y005871D01*
X005236Y005792D02*
X001791Y005792D01*
X001869Y005714D02*
X005236Y005714D01*
X005236Y005635D02*
X002448Y005635D01*
X002526Y005557D02*
X005236Y005557D01*
X005236Y005478D02*
X002605Y005478D01*
X002683Y005400D02*
X005236Y005400D01*
X005236Y005321D02*
X005142Y005321D01*
X005102Y005361D02*
X004339Y005361D01*
X004246Y005268D01*
X004246Y005243D01*
X004209Y005258D01*
X004082Y005258D01*
X003965Y005210D01*
X003876Y005120D01*
X003827Y005003D01*
X003827Y004877D01*
X003876Y004760D01*
X003965Y004670D01*
X004082Y004622D01*
X004209Y004622D01*
X004246Y004637D01*
X004246Y004584D01*
X004339Y004490D01*
X005102Y004490D01*
X005195Y004584D01*
X005195Y005268D01*
X005102Y005361D01*
X005195Y005243D02*
X005236Y005243D01*
X005236Y005164D02*
X005195Y005164D01*
X005195Y005086D02*
X005236Y005086D01*
X005236Y005007D02*
X005195Y005007D01*
X005195Y004929D02*
X005236Y004929D01*
X005236Y004850D02*
X005195Y004850D01*
X005195Y004772D02*
X005236Y004772D01*
X005236Y004693D02*
X005195Y004693D01*
X005195Y004615D02*
X005236Y004615D01*
X005236Y004536D02*
X005148Y004536D01*
X005236Y004458D02*
X002856Y004458D01*
X002856Y004536D02*
X004293Y004536D01*
X004246Y004615D02*
X002856Y004615D01*
X002856Y004693D02*
X003942Y004693D01*
X003871Y004772D02*
X002856Y004772D01*
X002856Y004850D02*
X003838Y004850D01*
X003827Y004929D02*
X002856Y004929D01*
X002856Y005007D02*
X003829Y005007D01*
X003861Y005086D02*
X002856Y005086D01*
X002856Y005164D02*
X003919Y005164D01*
X004044Y005243D02*
X002840Y005243D01*
X002762Y005321D02*
X004299Y005321D01*
X005236Y004379D02*
X002856Y004379D01*
X002856Y004301D02*
X005236Y004301D01*
X005236Y004222D02*
X002856Y004222D01*
X002856Y004144D02*
X005236Y004144D01*
X005236Y004065D02*
X002856Y004065D01*
X002856Y003987D02*
X005236Y003987D01*
X005236Y003908D02*
X002856Y003908D01*
X002856Y003830D02*
X005236Y003830D01*
X005236Y003751D02*
X002856Y003751D01*
X002856Y003673D02*
X005236Y003673D01*
X005236Y003594D02*
X002856Y003594D01*
X002824Y003516D02*
X004265Y003516D01*
X004246Y003496D02*
X004246Y003474D01*
X004234Y003478D01*
X004107Y003478D01*
X003990Y003430D01*
X003901Y003340D01*
X003852Y003223D01*
X003852Y003097D01*
X003901Y002980D01*
X003990Y002890D01*
X004107Y002842D01*
X004234Y002842D01*
X004246Y002846D01*
X004246Y002812D01*
X004339Y002719D01*
X005102Y002719D01*
X005195Y002812D01*
X005195Y003496D01*
X005102Y003590D01*
X004339Y003590D01*
X004246Y003496D01*
X004007Y003437D02*
X002746Y003437D01*
X002667Y003359D02*
X003919Y003359D01*
X003876Y003280D02*
X002589Y003280D01*
X002510Y003202D02*
X003852Y003202D01*
X003852Y003123D02*
X002484Y003123D01*
X002465Y003045D02*
X003874Y003045D01*
X003914Y002966D02*
X002428Y002966D01*
X002349Y002888D02*
X003996Y002888D01*
X004249Y002809D02*
X002043Y002809D01*
X001964Y002731D02*
X004327Y002731D01*
X005114Y002731D02*
X005236Y002731D01*
X005236Y002809D02*
X005192Y002809D01*
X005195Y002888D02*
X005236Y002888D01*
X005236Y002966D02*
X005195Y002966D01*
X005195Y003045D02*
X005236Y003045D01*
X005236Y003123D02*
X005195Y003123D01*
X005195Y003202D02*
X005236Y003202D01*
X005236Y003280D02*
X005195Y003280D01*
X005195Y003359D02*
X005236Y003359D01*
X005236Y003437D02*
X005195Y003437D01*
X005176Y003516D02*
X005236Y003516D01*
X005163Y002181D02*
X005658Y002181D01*
X008468Y001946D02*
X009043Y001946D01*
X009122Y001867D02*
X008500Y001867D01*
X008526Y001789D02*
X009177Y001789D01*
X009184Y001710D02*
X008526Y001710D01*
X008526Y001632D02*
X009217Y001632D01*
X009282Y001553D02*
X008526Y001553D01*
X008526Y001475D02*
X009425Y001475D01*
X009566Y001475D02*
X009628Y001475D01*
X009661Y001396D02*
X008526Y001396D01*
X008526Y001318D02*
X009718Y001318D01*
X009840Y001239D02*
X008526Y001239D01*
X009978Y000376D02*
X001314Y000376D01*
X001178Y000454D02*
X010113Y000454D01*
X003526Y008975D02*
X003426Y009020D01*
X003496Y009090D01*
X003496Y009608D02*
X003518Y009630D01*
X003518Y009718D01*
X003346Y009890D01*
X003346Y010330D01*
X003336Y010340D01*
X003076Y010340D02*
X003076Y010020D01*
X002946Y009890D01*
X002596Y009890D01*
X002546Y009840D01*
X002546Y009682D01*
X002494Y009630D01*
X002596Y009528D01*
X002494Y009630D02*
X002494Y009758D01*
X002596Y009140D02*
X002696Y009040D01*
X002696Y008975D01*
X001946Y009285D02*
X001946Y009640D01*
X002076Y011095D02*
X002110Y011280D01*
X002646Y011280D01*
X002646Y011800D02*
X001961Y011800D01*
X002076Y011765D01*
X001736Y012140D02*
X001626Y012030D01*
X005046Y011540D02*
X005056Y011550D01*
X005306Y011550D01*
X005483Y011380D02*
X005559Y011456D01*
X005559Y011340D01*
X005568Y011304D01*
X005587Y011272D01*
X005605Y011254D01*
X005591Y011240D01*
X005486Y011240D01*
X005486Y011280D01*
X005486Y011368D01*
X005483Y011380D01*
X005486Y011366D02*
X005559Y011366D01*
X005547Y011444D02*
X005559Y011444D01*
X005578Y011287D02*
X005486Y011287D01*
X005486Y011280D02*
X005046Y011280D01*
X005046Y011280D01*
X005486Y011280D01*
X005936Y011535D02*
X005936Y011615D01*
X006184Y011615D01*
X006416Y011383D01*
X006416Y011373D01*
X006470Y011318D01*
X006520Y011259D01*
X006531Y011258D01*
X006647Y011142D01*
X006576Y011070D01*
X006529Y010957D01*
X006526Y010960D01*
X006409Y011008D01*
X006282Y011008D01*
X006253Y010996D01*
X006253Y011188D01*
X006187Y011254D01*
X006205Y011272D01*
X006223Y011304D01*
X006233Y011340D01*
X006233Y011535D01*
X005936Y011535D01*
X005936Y011601D02*
X006198Y011601D01*
X006233Y011523D02*
X006276Y011523D01*
X006233Y011444D02*
X006355Y011444D01*
X006423Y011366D02*
X006233Y011366D01*
X006213Y011287D02*
X006496Y011287D01*
X006580Y011209D02*
X006232Y011209D01*
X006253Y011130D02*
X006635Y011130D01*
X006568Y011052D02*
X006253Y011052D01*
X006494Y010973D02*
X006535Y010973D01*
X006399Y011994D02*
X006682Y011994D01*
X001851Y006185D02*
X001656Y006185D01*
X001656Y006263D02*
X001804Y006263D01*
X001777Y006342D02*
X001656Y006342D01*
X001656Y006420D02*
X001777Y006420D01*
X001701Y006499D02*
X001656Y006499D01*
X001511Y005478D02*
X000806Y005478D01*
X000806Y005400D02*
X001589Y005400D01*
X002046Y004615D02*
X002436Y004615D01*
X002436Y004536D02*
X001998Y004536D01*
X002026Y003516D02*
X002230Y003516D01*
X001571Y003154D02*
X001421Y003004D01*
D22*
X009146Y010440D03*
D23*
X005646Y013040D02*
X005496Y012890D01*
X004646Y012890D01*
M02*
